<?xml version="1.0" standalone="no"?><!DOCTYPE svg PUBLIC "-//W3C//DTD SVG 1.1//EN" "http://www.w3.org/Graphics/SVG/1.1/DTD/svg11.dtd"><svg class="icon" width="200px" height="200.00px" viewBox="0 0 1024 1024" version="1.1" xmlns="http://www.w3.org/2000/svg"><path d="M793.8 420.2C766.2 289.8 650.6 192 512 192s-254.2 97.8-281.8 228.2C135.4 439.5 64 523.4 64 624c0 114.9 93.1 208 208 208h480c114.9 0 208-93.1 208-208 0-100.6-71.4-184.5-166.2-203.8z m60 305.6C826.6 753 790.5 768 752 768H272c-38.5 0-74.6-15-101.8-42.2S128 662.5 128 624c0-17.1 2.9-33.7 8.7-49.5 5.6-15.3 13.7-29.4 24.2-42.1 21-25.4 50.1-43 82.1-49.5l41.2-8.4 8.7-41.1c10.4-49.4 37.9-94.4 77.2-126.7 19.6-16.1 41.5-28.6 65.2-37.2 24.5-9 50.3-13.5 76.7-13.5 26.4 0 52.2 4.5 76.7 13.5 23.7 8.6 45.6 21.2 65.2 37.2 39.4 32.3 66.8 77.3 77.2 126.7l8.7 41.1 41.2 8.4c32 6.5 61.2 24.1 82.1 49.5 10.4 12.6 18.6 26.8 24.2 42.1 5.8 15.8 8.7 32.5 8.7 49.5 0 38.5-15 74.6-42.2 101.8z" fill="#1875F0" /></svg>