<?xml version="1.0" standalone="no"?><!DOCTYPE svg PUBLIC "-//W3C//DTD SVG 1.1//EN" "http://www.w3.org/Graphics/SVG/1.1/DTD/svg11.dtd"><svg class="icon" width="200px" height="106.22px" viewBox="0 0 1928 1024" version="1.1" xmlns="http://www.w3.org/2000/svg"><path d="M654.255907 689.769357l120.745728 8.892798v103.133367s-225.611459 222.204478-554.356285-40.883776h112.026166l12.415271-101.343258s127.848418 129.754018 309.16912 30.200869z" fill="#0D2C40" /><path d="M245.360402 213.311679s-245.360402 228.440986-44.463994 520.921671L313.038065 744.916258l10.682907-108.445948S220.64535 467.564879 353.80635 334.230643L234.388767 324.991372z" fill="#0D2C40" /><path d="M272.038798 197.31619s306.050866-197.31619 538.707269 40.883776l-103.133368-7.10269-10.682907 115.490893s-117.338747-142.169289-312.864828-31.933232l-119.128856-5.312581z" fill="#0D2C40" /><path d="M723.608188 375.114419l7.10269-119.128855 108.445948 10.682907 327.127954 364.431512h-111.968421l-10.682907 101.343258z" fill="#0D2C40" /><path d="M684.514521 670.251396l414.208087-456.939717 110.236057 10.682907-7.10269 112.026166-407.105397 453.301754 1.732363-117.338747z" fill="#02D35F" /><path d="M1114.718096 196.854227l114.682457 9.354762-7.968872 109.369875s169.309649-108.04173 293.346867 6.640727l121.265438 5.312581L1646.957875 221.049569s-189.520555-213.658151-532.239779-24.195342z" fill="#02D35F" /><path d="M1532.102182 339.543224l121.265438 7.10269 9.354762-107.117803s265.340326 295.59894-21.365815 549.794395L1524.075565 781.180398l10.682908-121.265437s158.684487-177.682738-2.656291-320.371737z" fill="#02D35F" /><path d="M1194.753285 659.568488l-122.478092-10.682907-6.871708 108.04173s217.35386 250.672983 545.347995 50.642756l-112.026166-9.066035 10.682908-116.010602s-142.688998 114.393729-314.654937-22.924942z" fill="#02D35F" /><path d="M1349.742063 472.819715v40.421812a21.770033 21.770033 0 0 0-0.519709 4.792872 22.289742 22.289742 0 0 0 0.519709 4.850618v65.136863h-30.258614v-115.490893z" fill="#0D2C40" /><path d="M1376.362714 472.819715a48.044211 48.044211 0 0 0-26.620651 12.530762 46.196357 46.196357 0 0 0-17.727852 32.741668 49.256866 49.256866 0 0 0 17.727852 34.647267 39.209158 39.209158 0 0 0 23.617887 10.682908c28.122032 0.692945 41.980939-23.502397 41.98094-45.27243s-17.208143-46.600575-38.978176-45.330175z m-9.181526 65.310099a18.420797 18.420797 0 0 1-17.323634-15.187052 22.289742 22.289742 0 0 1-0.519709-4.850617 21.770033 21.770033 0 0 1 0.519709-4.792872 18.420797 18.420797 0 0 1 17.323634-15.187053 20.095415 20.095415 0 0 1 0 40.017594z m108.330457-30.836068c-4.388654-1.385891-20.615124-3.92669-20.615124-10.047708 0-3.464727 4.966108-3.868945 7.391417-3.753454 6.929454 0 17.323634 8.257599 23.098178 6.698472 5.139345-1.328145 9.64349-14.609598 11.54909-19.113743a73.740935 73.740935 0 0 0-48.159703-8.777307 28.872723 28.872723 0 0 0-21.770033 38.111994c7.333672 18.998252 29.854396 11.549089 41.230249 23.098179 4.677381 4.850617-4.966108 7.044944-8.142108 6.929453a68.428354 68.428354 0 0 1-27.371342-10.39418c-2.829527 4.042181-11.549089 13.685671-10.509671 18.709525s12.530762 8.777308 17.323634 10.278689c16.053234 5.19709 40.826031 7.160435 52.894829-7.449163 15.071561-17.554616 1.9056-38.16974-16.919416-44.290757z m-234.966221-66.465009a63.519991 63.519991 0 1 0 63.519991 63.519991 63.519991 63.519991 0 0 0-63.519991-63.519991z m0 95.915187a32.568432 32.568432 0 1 1 32.626177-32.568432 32.568432 32.568432 0 0 1-32.683923 32.568432z" fill="#0D2C40" /><path d="M638.953364 471.376078h-36.206395l38.285231 100.130604h16.515198v-42.673884z m37.245813 0.173237h36.206395l-38.342977 100.130604h-16.515197v-42.673885zM463.176225 457.28619a87.137879 87.137879 0 0 0-40.999267-15.129307c-19.517961-1.847854-40.421812 0.519709-58.496137 0.519709v128.7146h0.866182c3.464727 0.404218 6.929454 0.750691 10.451926 0.981672a229.422658 229.422658 0 0 0 41.692212-0.346473c26.50516-2.945018 43.540067-11.549089 53.991992-22.751705a58.380646 58.380646 0 0 0 14.725089-37.765522v-4.677381c-0.230982-18.305306-5.485817-36.726104-22.231997-49.545593z m-29.450178 78.649298c-10.913889 6.121017-24.195342 4.619636-36.206394 4.619635v-67.042463c12.761744 0 27.14036-1.674618 38.342976 6.178763 18.594034 13.108216 17.901088 44.925957-2.309818 56.244065z m153.140924 10.047707c-2.945018-2.483054-6.698472-6.698472-10.682907-7.391417-6.351999-0.866182-14.263125 7.680144-21.30807 8.37309-10.971635 1.097163-18.882761-6.46749-23.098179-15.591271h66.753736c0-18.478543-1.559127-37.938758-17.323634-50.642756-29.276941-23.906615-77.321153-6.236508-82.691479 31.471268-5.774545 39.728867 25.465742 65.367845 63.519991 60.401737a49.892066 49.892066 0 0 0 25.523488-11.549089c2.598545-2.309818 6.409745-5.485817 4.504144-9.239272a21.481306 21.481306 0 0 0-5.19709-5.83229z m-21.30807-32.741668h-34.069813a17.323634 17.323634 0 0 1 34.069813 0z" fill="#02D35F" /></svg>