<?xml version="1.0" standalone="no"?><!DOCTYPE svg PUBLIC "-//W3C//DTD SVG 1.1//EN" "http://www.w3.org/Graphics/SVG/1.1/DTD/svg11.dtd"><svg class="icon" width="200px" height="177.78px" viewBox="0 0 1152 1024" version="1.1" xmlns="http://www.w3.org/2000/svg"><path d="M531.35346 858.495232a389.970057 389.970057 0 1 0 0-779.940113 389.970057 389.970057 0 0 0 0 779.940113z" fill="#FFD21E" /><path d="M921.323516 468.525176a389.970057 389.970057 0 1 0-779.940113 0 389.970057 389.970057 0 0 0 779.940113 0z m-824.828752 0a434.858696 434.858696 0 1 1 869.717392 0 434.858696 434.858696 0 0 1-869.717392 0z" fill="#FF9D0B" /><path d="M658.051645 362.475765c14.364365 4.93775 19.975445 34.339809 34.452031 26.70874a56.110799 56.110799 0 1 0-75.861801-23.229871c6.845518 12.905484 28.616508-8.079955 41.521992-3.591091z m-264.281866 0c-14.364365 4.93775-20.087666 34.339809-34.452031 26.70874a56.110799 56.110799 0 1 1 75.861801-23.229871c-6.845518 12.905484-28.728729-8.079955-41.521991-3.591091z" fill="#3A3B45" /><path d="M528.54792 631.695381c110.313832 0 145.888079-98.306121 145.888078-148.805841 0-26.259854-17.618791-17.955456-45.898634-4.039977-26.147633 12.905484-61.272993 30.748718-99.877223 30.748718-80.68733 0-145.888079-77.20846-145.888078-26.708741s35.462025 148.80584 145.888078 148.805841z" fill="#FF323D" /><path d="M444.045056 605.996635a97.632791 97.632791 0 0 1 59.477447-50.387498c4.488864-1.346659 9.08995 6.396631 13.915478 14.364364 4.488864 7.631069 9.202171 15.374359 13.915479 15.374359 5.049972 0 10.099944-7.631069 14.925472-15.149915 5.049972-7.855512 9.987722-15.486581 14.813251-14.0277a96.622797 96.622797 0 0 1 56.1108 46.796406c41.858656-32.99315 57.233015-86.859518 57.233015-120.077111 0-26.259854-17.618791-17.955456-45.898634-4.039977l-1.571102 0.785551c-25.923189 12.905484-60.487442 29.963167-98.418342 29.963167s-72.382931-17.057683-98.418343-29.963167c-29.177616-14.476586-47.469736-23.566536-47.469736 3.254426 0 34.227588 16.384353 90.450609 61.385215 123.107095z" fill="#3A3B45" /><path d="M795.074217 415.219916a36.47202 36.47202 0 1 0 0-72.944039 36.47202 36.47202 0 0 0 0 72.944039z m-521.830435 0a36.47202 36.47202 0 1 0 0-72.944039 36.47202 36.47202 0 0 0 0 72.944039z m-75.07625 123.443759c-18.179899 0-34.339809 7.406626-45.67419 20.985439a66.996295 66.996295 0 0 0-14.925473 42.195321 79.677335 79.677335 0 0 0-21.77099-3.366648c-17.394348 0-33.105372 6.621074-44.21531 18.628786a65.088527 65.088527 0 0 0-8.977728 78.555119 59.477447 59.477447 0 0 0-20.087667 31.646491c-2.693318 10.099944-5.386637 31.422048 8.977728 53.193038a58.579675 58.579675 0 0 0-4.152199 56.335243c11.446603 26.035411 40.063111 46.459742 95.612803 68.455175 34.452031 13.691035 66.098522 22.44432 66.322965 22.556542a497.478348 497.478348 0 0 0 122.658207 17.955455c65.761857 0 112.782707-20.199888 139.828113-59.926334 43.54198-63.85409 37.369792-122.321543-19.077672-178.656785-31.085383-31.197605-51.846379-77.096239-56.1108-87.196183-8.753285-29.850945-31.870934-63.068539-70.138499-63.068538a63.966311 63.966311 0 0 0-51.621936 27.606513c-11.22216-14.139921-22.219877-25.24986-32.095377-31.646491A83.043983 83.043983 0 0 0 198.167532 538.663675z m0 44.88864c5.723302 0 12.793262 2.468875 20.424331 7.294404 24.015422 15.262137 70.138499 94.602808 87.083961 125.463747 5.61108 10.324387 15.374359 14.701029 24.015422 14.70103 17.394348 0 30.86094-17.169905 1.683324-39.053117-43.990867-32.880929-28.616508-86.635074-7.631068-89.8895 0.897773-0.224443 1.907767-0.224443 2.693318-0.224444 19.077672 0 27.494292 32.880929 27.494292 32.880929s24.688752 61.946323 67.108516 104.366087c42.307543 42.307543 44.551975 76.310687 13.691035 121.535992-21.097661 30.86094-61.385215 40.175332-102.794985 40.175332-42.756429 0-86.747296-10.099944-111.323826-16.384353-1.234438-0.336665-150.938051-42.644208-131.9726-78.55512 3.142205-6.059966 8.41662-8.528842 15.037694-8.528841 26.708741 0 75.188471 39.726446 96.17391 39.726446 4.601086 0 7.855512-1.907767 9.314393-6.733296 8.865506-31.983156-135.339248-45.449748-123.219316-91.685046 2.244432-8.192177 7.967734-11.446603 16.159911-11.446603 35.237582 0 114.466031 62.058544 131.074827 62.058544 1.234438 0 2.244432-0.336665 2.693319-1.122216 8.304398-13.466592 3.703313-22.893206-54.988584-58.355232-58.467453-35.462025-99.65278-56.784129-76.310687-82.258432 2.693318-2.917762 6.508853-4.264421 11.22216-4.264421 35.574247 0 119.628225 76.535131 119.628224 76.535131s22.668763 23.566536 36.47202 23.566536c3.142205 0 5.835523-1.122216 7.631069-4.264421 9.651058-16.384353-90.450609-92.246154-96.061689-123.55598-3.815534-21.322104 2.693318-31.983156 14.701029-31.983156z" fill="#FF9D0B" /><path d="M434.730663 860.627443c30.86094-45.337526 28.616508-79.34067-13.691035-121.648214-42.419764-42.307543-67.108516-104.366087-67.108516-104.366087s-9.202171-35.910912-30.18761-32.544263c-20.985439 3.366648-36.359798 57.008572 7.631068 89.8895 43.878645 32.880929-8.753285 55.213027-25.698746 24.352087-16.83324-30.86094-63.068539-110.20161-87.083961-125.463747-23.903201-15.149916-40.73644-6.733296-35.12536 24.688752 5.61108 31.309826 105.824968 107.171627 96.061689 123.443758-9.763279 16.496575-44.103088-19.189893-44.103089-19.189893s-107.39607-97.745013-130.850384-72.27071c-23.342093 25.474303 17.843234 46.796407 76.310687 82.258432 58.691896 35.462025 63.292982 44.88864 54.988584 58.355232-8.41662 13.466592-137.808124-95.725024-149.928057-49.377504-12.119933 46.123077 132.084822 59.477447 123.219316 91.460603-8.977728 31.983156-101.672769-60.37522-120.525997-24.464308-19.077672 36.023133 130.738163 78.330676 131.9726 78.667341 48.255288 12.568819 171.137938 39.165338 214.118811-23.790979z" fill="#FFD21E" /><path d="M870.150467 538.663675c18.179899 0 34.452031 7.406626 45.674191 20.985439a66.996295 66.996295 0 0 1 14.925473 42.195321 79.677335 79.677335 0 0 1 21.883211-3.366648c17.394348 0 33.105372 6.621074 44.21531 18.628786a65.088527 65.088527 0 0 1 8.977728 78.555119 59.477447 59.477447 0 0 1 19.975445 31.646491c2.693318 10.099944 5.386637 31.422048-8.977728 53.193038a58.579675 58.579675 0 0 1 4.152199 56.335243c-11.446603 26.035411-40.063111 46.459742-95.500581 68.455175-34.564252 13.691035-66.210743 22.44432-66.435186 22.556542a497.478348 497.478348 0 0 1-122.658208 17.955455c-65.761857 0-112.782707-20.199888-139.828112-59.926334-43.54198-63.85409-37.369792-122.321543 19.077672-178.656785 31.197605-31.197605 51.9586-77.096239 56.223021-87.196183 8.753285-29.850945 31.758713-63.068539 70.026277-63.068538a63.966311 63.966311 0 0 1 51.621936 27.606513c11.22216-14.139921 22.219877-25.24986 32.207599-31.646491A83.043983 83.043983 0 0 1 870.150467 538.663675z m0 44.88864c-5.723302 0-12.681041 2.468875-20.424331 7.294404-23.903201 15.262137-70.138499 94.602808-87.083961 125.463747a27.269849 27.269849 0 0 1-24.015422 14.70103c-17.282126 0-30.86094-17.169905-1.571102-39.053117 43.878645-32.880929 28.504286-86.635074 7.518847-89.8895a17.282126 17.282126 0 0 0-2.693319-0.224444c-19.077672 0-27.494292 32.880929-27.494291 32.880929s-24.688752 61.946323-66.996295 104.366087c-42.419764 42.307543-44.664196 76.310687-13.691035 121.535992 20.985439 30.86094 61.385215 40.175332 102.682763 40.175332 42.868651 0 86.747296-10.099944 111.436048-16.384353 1.122216-0.336665 150.938051-42.644208 131.9726-78.55512-3.254426-6.059966-8.41662-8.528842-15.037694-8.528841-26.708741 0-75.300693 39.726446-96.17391 39.726446-4.713307 0-7.967734-1.907767-9.314393-6.733296-8.977728-31.983156 135.227027-45.449748 123.107094-91.685046-2.13221-8.192177-7.855512-11.446603-16.15991-11.446603-35.237582 0-114.466031 62.058544-131.074828 62.058544-1.122216 0-2.13221-0.336665-2.581097-1.122216-8.304398-13.466592-3.815534-22.893206 54.764141-58.355232 58.691896-35.462025 99.877223-56.784129 76.310687-82.258432-2.581097-2.917762-6.396631-4.264421-10.997717-4.264421-35.686468 0-119.740446 76.535131-119.740446 76.535131s-22.668763 23.566536-36.359798 23.566536a8.304398 8.304398 0 0 1-7.631069-4.264421c-9.763279-16.384353 90.338387-92.246154 95.949468-123.55598 3.815534-21.322104-2.693318-31.983156-14.70103-31.983156z" fill="#FF9D0B" /><path d="M633.699558 860.627443c-30.86094-45.337526-28.728729-79.34067 13.691035-121.648214 42.307543-42.307543 66.996295-104.366087 66.996295-104.366087s9.202171-35.910912 30.299831-32.544263c20.873217 3.366648 36.247576 57.008572-7.631068 89.8895-43.990867 32.880929 8.753285 55.213027 25.586524 24.352087 16.945461-30.86094 63.18076-110.20161 87.083961-125.463747 23.903201-15.149916 40.848662-6.733296 35.125361 24.688752-5.61108 31.309826-105.712746 107.171627-95.949468 123.443758 9.651058 16.496575 43.990867-19.189893 43.990867-19.189893s107.508292-97.745013 130.850385-72.27071c23.342093 25.474303-17.731013 46.796407-76.310688 82.258432-58.691896 35.462025-63.18076 44.88864-54.988583 58.355232 8.41662 13.466592 137.808124-95.725024 149.928056-49.377504 12.119933 46.123077-131.9726 59.477447-123.107094 91.460603 8.977728 31.983156 101.560547-60.37522 120.525997-24.464308 18.96545 36.023133-130.738163 78.330676-131.9726 78.667341-48.367509 12.568819-171.25016 39.165338-214.118811-23.790979z" fill="#FFD21E" /></svg>