<?xml version="1.0" standalone="no"?><!DOCTYPE svg PUBLIC "-//W3C//DTD SVG 1.1//EN" "http://www.w3.org/Graphics/SVG/1.1/DTD/svg11.dtd"><svg class="icon" width="200px" height="200.00px" viewBox="0 0 1024 1024" version="1.1" xmlns="http://www.w3.org/2000/svg"><path d="M671.936 576a32 32 0 1 0 0 64.064h128a32 32 0 1 0 0-64h-128z m-64-192a32 32 0 1 0 0 64.128h192A32 32 0 1 0 800 384h-192zM384.192 496a64 64 0 1 1 0-127.872 64 64 0 0 1 0 127.936zM192 128h640a128 128 0 0 1 128 128v512a128 128 0 0 1-128 128H192a128 128 0 0 1-128-128V256a128 128 0 0 1 128-128z m68.096 528a128 128 0 0 1 248 0H260.096z m315.84 32c0-72.32-39.936-135.168-98.88-167.936a128 128 0 1 0-186.048-0.128 192 192 0 0 0-99.136 168.064 32 32 0 0 0 32 32h320a32.192 32.192 0 0 0 32.064-32z" fill="#1296db" fill-opacity=".746" /></svg>